HIERARCHY
ROOT hip
{
	OFFSET 0.00000 0.00000 0.00000
	CHANNELS 6 Xposition Yposition Zposition Zrotation Yrotation Xrotation 
	JOINT rightuplegdummy
	{
		OFFSET 0 0 0
		CHANNELS 3 Zrotation Yrotation Xrotation
		JOINT rightupleg
		{
			OFFSET -3.52197 -3.41223 0.04002
			CHANNELS 3 Zrotation Yrotation Xrotation
			JOINT rightleg
			{
				OFFSET 0.00006 -17.42390 1.60435
				CHANNELS 3 Zrotation Yrotation Xrotation
				JOINT rightfoot
				{
					OFFSET 0.06153 -16.50078 -1.63901
					CHANNELS 3 Zrotation Yrotation Xrotation
					JOINT righttoes
					{
						OFFSET 0.00298 -1.73825 3.34613
						CHANNELS 3 Zrotation Yrotation Xrotation
						End Site
						{
							OFFSET 0.00480 -0.05416 3.85043
						}
					}
				}
			}
		}
	}
	JOINT spinedummy
	{
		OFFSET 0 0 0
		CHANNELS 3 Zrotation Yrotation Xrotation
		JOINT spine
		{
			OFFSET 0.00000 4.68130 0.00000
			CHANNELS 3 Zrotation Yrotation Xrotation
			JOINT spine1
			{
				OFFSET -0.00000 10.10138 0.05002
				CHANNELS 3 Zrotation Yrotation Xrotation
				JOINT headdummy
				{
					OFFSET 0 0 0
					CHANNELS 3 Zrotation Yrotation Xrotation
					JOINT head
					{
						OFFSET -0.00000 3.43865 0.00438
						CHANNELS 3 Zrotation Yrotation Xrotation
						End Site
						{
							OFFSET -0.11417 5.02924 0.98962
						}
					}
				}
				JOINT leftshoulder1dummy
				{
					OFFSET 0 0 0
					CHANNELS 3 Zrotation Yrotation Xrotation
					JOINT leftshoulder1
					{
						OFFSET 3.53937 -0.14262 -0.08662
						CHANNELS 3 Zrotation Yrotation Xrotation
						JOINT leftarm
						{
							OFFSET 4.04833 -0.00133 0.12681
							CHANNELS 3 Zrotation Yrotation Xrotation
							JOINT leftforearm
							{
								OFFSET 10.33880 -0.01036 -0.55515
								CHANNELS 3 Zrotation Yrotation Xrotation
								JOINT lefthand
								{
									OFFSET 8.69677 0.07543 0.40060
									CHANNELS 3 Zrotation Yrotation Xrotation
									End Site
									{
										OFFSET 5.28377 -0.21905 0.59205
									}
								}
							}
						}
					}
				}
				JOINT rightshoulderdummy
				{
					OFFSET 0 0 0
					CHANNELS 3 Zrotation Yrotation Xrotation
					JOINT rightshoulder
					{
						OFFSET -3.53937 -0.14262 -0.08660
						CHANNELS 3 Zrotation Yrotation Xrotation
						JOINT rightarm
						{
							OFFSET -4.04833 -0.00133 0.12683
							CHANNELS 3 Zrotation Yrotation Xrotation
							JOINT rightforearm
							{
								OFFSET -10.37987 -0.01039 -0.55511
								CHANNELS 3 Zrotation Yrotation Xrotation
								JOINT righthand
								{
									OFFSET -8.67398 0.07538 0.40058
									CHANNELS 3 Zrotation Yrotation Xrotation
									End Site
									{
										OFFSET -5.24810 -0.21916 0.59204
									}
								}
							}
						}
					}
				}
			}
		}
	}
	JOINT leftuplegdummy
	{
		OFFSET 0 0 0
		CHANNELS 3 Zrotation Yrotation Xrotation
		JOINT leftupleg
		{
			OFFSET 3.52197 -3.41223 0.04002
			CHANNELS 3 Zrotation Yrotation Xrotation
			JOINT leftleg
			{
				OFFSET -0.00012 -17.42399 1.60337
				CHANNELS 3 Zrotation Yrotation Xrotation
				JOINT leftfoot
				{
					OFFSET -0.09972 -16.50070 -1.63802
					CHANNELS 3 Zrotation Yrotation Xrotation
					JOINT lefttoes
					{
						OFFSET -0.01575 -1.73823 3.34611
						CHANNELS 3 Zrotation Yrotation Xrotation
						End Site
						{
							OFFSET 0.03150 -0.01868 3.85031
						}
					}
				}
			}
		}
	}
}
MOTION
Frames: 9
Frame Time: 0.033333
0.5179 40.5772 5.5523 179.8170 2.4877 -179.9670 0.0000 -0.0000 0.0000 -1.4261 -1.6242 3.1353 0.4987 -8.9439 2.5688 2.4801 -0.2298 -1.3767 0.0000 0.0000 -0.0000 0.0000 -0.0000 0.0000 2.2790 0.6828 1.8769 -0.4238 0.7420 2.6168 -0.0000 -0.0000 -0.0000 -1.1607 -4.1529 4.4593 -0.0000 -0.0000 -0.0000 -2.7421 1.2880 0.2444 1.1555 -0.0742 -28.6932 -6.7180 -4.6500 -5.5883 12.0852 6.7302 0.0962 -0.0000 -0.0000 -0.0000 1.6056 -2.1929 0.1311 -7.4050 1.5524 -38.6962 6.3371 -1.2025 -2.3287 -12.6050 -0.5366 -0.5233 0.0000 -0.0000 0.0000 0.4928 -1.1584 3.2958 1.1103 14.1550 -0.3808 -2.1100 0.1982 0.6017 0.0000 0.0000 0.0000
0.5179 40.5720 5.4819 179.7870 2.5814 179.9570 0.0000 -0.0000 0.0000 -1.4812 -1.6815 3.2680 0.5090 -8.7926 2.6854 2.4889 -0.2299 -1.5252 0.0000 0.0000 -0.0000 0.0000 -0.0000 0.0000 2.1951 0.7444 1.7936 -0.3188 0.7780 2.5866 -0.0000 -0.0000 -0.0000 -1.1586 -4.5221 4.3580 -0.0000 -0.0000 -0.0000 -2.7862 1.2774 0.2444 1.2946 -0.1329 -28.6862 -6.7160 -4.4872 -5.3520 12.2317 6.6585 0.0910 -0.0000 -0.0000 -0.0000 1.5343 -2.2367 0.1310 -7.5407 1.6310 -38.8054 6.3166 -1.2448 -2.3744 -12.6413 -0.6276 -0.5218 0.0000 -0.0000 0.0000 0.4465 -1.1410 3.5003 1.1229 14.2410 -0.3674 -2.1493 0.2008 0.5005 0.0000 0.0000 0.0000
0.5161 40.5653 5.3663 179.7830 2.7212 179.8990 0.0000 -0.0000 0.0000 -1.4989 -1.6946 3.4928 0.4969 -8.6362 2.7079 2.4987 -0.2301 -1.6760 0.0000 0.0000 -0.0000 0.0000 -0.0000 0.0000 2.2225 0.7788 1.7672 -0.3942 0.8193 2.2466 -0.0000 -0.0000 -0.0000 -0.9057 -4.9086 4.3152 -0.0000 -0.0000 -0.0000 -2.7896 1.2966 0.2406 1.5001 -0.3520 -29.1513 -6.5444 -3.9194 -4.3311 11.9937 6.4536 0.0683 -0.0000 -0.0000 -0.0000 1.4537 -2.2054 0.1310 -7.6681 1.8090 -38.8476 6.3000 -1.4733 -2.0255 -12.5972 -0.5303 -0.5300 0.0000 -0.0000 0.0000 0.4320 -1.0688 3.7557 1.1183 14.3489 -0.3213 -2.1395 0.2001 0.3134 0.0000 0.0000 0.0000
0.5053 40.5601 5.2539 179.8400 2.8544 179.9430 0.0000 -0.0000 0.0000 -1.4553 -1.6481 3.6746 0.4919 -8.5435 2.5743 2.5321 -0.2320 -1.7330 0.0000 0.0000 -0.0000 0.0000 -0.0000 0.0000 2.4461 0.7879 1.5191 -0.7428 0.8851 2.0895 -0.0000 -0.0000 -0.0000 -0.5485 -4.9167 4.2918 -0.0000 -0.0000 -0.0000 -2.5846 1.5250 0.2124 1.4442 -0.7635 -29.4480 -6.4661 -3.7396 -3.7525 11.6117 6.4296 0.0620 -0.0000 -0.0000 -0.0000 1.6124 -2.1769 0.1311 -7.8227 2.0287 -38.7958 6.3141 -1.7499 -1.6375 -12.6014 -0.3527 -0.5480 0.0000 -0.0000 0.0000 0.4840 -0.9636 3.8761 1.0954 14.4032 -0.2444 -2.1408 0.2002 0.1008 0.0000 0.0000 0.0000
0.4890 40.5569 5.1394 179.9170 2.9547 -179.9470 0.0000 -0.0000 0.0000 -1.4068 -1.6065 3.8304 0.5134 -8.4857 2.3673 2.5936 -0.2359 -1.7526 0.0000 0.0000 -0.0000 0.0000 -0.0000 0.0000 2.6177 0.7964 0.8790 -1.0098 0.9333 2.4845 -0.0000 -0.0000 -0.0000 -0.3213 -4.8732 4.1957 -0.0000 -0.0000 -0.0000 -2.3260 1.5554 0.2046 1.2325 -0.6618 -28.8812 -6.6498 -4.3271 -4.4934 11.8941 6.7424 0.0949 -0.0000 -0.0000 -0.0000 1.9225 -2.1574 0.1367 -7.9997 2.0725 -38.5582 6.4179 -1.6536 -1.9757 -12.9646 -0.5934 -0.5385 0.0000 -0.0000 0.0000 0.5240 -0.9254 3.9538 1.1037 14.4454 -0.2365 -2.2368 0.2064 -0.0788 0.0000 0.0000 0.0000
0.4722 40.5541 5.0152 179.9770 3.0391 -179.8800 0.0000 -0.0000 0.0000 -1.3762 -1.5868 4.0561 0.5332 -8.4291 2.1499 2.6332 -0.2384 -1.7825 0.0000 0.0000 -0.0000 0.0000 -0.0000 0.0000 2.5458 0.8005 0.2343 -0.9310 0.9128 2.9650 -0.0000 -0.0000 -0.0000 -0.3160 -4.9326 4.1896 -0.0000 -0.0000 -0.0000 -2.4068 1.1156 0.2527 1.3278 0.0355 -28.4186 -6.7107 -4.6266 -4.8301 11.9673 6.7005 0.0919 -0.0000 -0.0000 -0.0000 1.9124 -2.0233 0.1501 -7.8912 1.8888 -38.2142 6.5504 -1.2785 -2.6692 -13.2961 -1.1442 -0.4932 0.0000 -0.0000 0.0000 0.5244 -0.9332 4.1455 1.1244 14.5238 -0.3331 -2.2907 0.2099 -0.2256 0.0000 0.0000 0.0000
0.4470 40.5480 4.9014 -179.9730 3.1654 -179.8900 0.0000 -0.0000 0.0000 -1.3828 -1.5954 4.2746 0.5491 -8.2897 2.0781 2.6502 -0.2393 -1.8596 0.0000 0.0000 -0.0000 0.0000 -0.0000 0.0000 2.3830 0.8687 -0.1170 -0.7068 0.9279 3.1301 -0.0000 -0.0000 -0.0000 -0.5887 -4.8455 4.3499 -0.0000 -0.0000 -0.0000 -2.7528 1.0089 0.2714 1.6466 -0.0964 -28.8634 -6.5718 -4.1273 -4.0584 11.1795 6.3633 0.0517 -0.0000 -0.0000 -0.0000 1.5732 -2.0189 0.1462 -7.5395 1.9072 -38.3860 6.4887 -1.2811 -2.5294 -12.8839 -1.2098 -0.4713 0.0000 -0.0000 0.0000 0.5087 -0.9084 4.3880 1.1404 14.6430 -0.3761 -2.2471 0.2070 -0.3942 0.0000 0.0000 0.0000
0.4131 40.5398 4.8011 -179.9320 3.3001 -179.9040 0.0000 -0.0000 0.0000 -1.4333 -1.6353 4.3988 0.5723 -8.0956 2.1564 2.7086 -0.2427 -1.9766 0.0000 0.0000 -0.0000 0.0000 -0.0000 0.0000 2.3177 0.9527 -0.3890 -0.6853 0.9987 3.2229 -0.0000 -0.0000 -0.0000 -0.8352 -4.6431 4.5284 -0.0000 -0.0000 -0.0000 -2.8482 1.4548 0.2247 1.7043 -0.9453 -29.1780 -6.6021 -3.8832 -3.9846 10.9065 6.6120 0.0707 -0.0000 -0.0000 -0.0000 1.5463 -2.2100 0.1270 -7.4986 2.2396 -38.9590 6.2931 -1.7214 -1.7167 -12.1862 -0.7528 -0.4908 0.0000 -0.0000 0.0000 0.4621 -0.9060 4.5673 1.1917 14.7759 -0.3324 -2.2534 0.2075 -0.5682 0.0000 0.0000 0.0000
0.3839 40.5340 4.6997 -179.9120 3.3604 -179.8680 0.0000 -0.0000 0.0000 -1.4788 -1.6625 4.5043 0.5739 -7.9979 2.1749 2.8146 -0.2492 -2.0712 0.0000 0.0000 -0.0000 0.0000 -0.0000 0.0000 2.2883 0.9217 -0.8091 -0.8692 0.9991 3.4988 -0.0000 -0.0000 -0.0000 -0.6990 -4.4941 4.6414 -0.0000 -0.0000 -0.0000 -2.6089 1.5108 0.2142 1.5369 -0.8816 -28.8147 -6.7235 -4.1826 -4.5768 11.2638 6.9673 0.1070 -0.0000 -0.0000 -0.0000 1.9014 -2.1824 0.1339 -7.7213 2.3234 -38.9376 6.2955 -1.9182 -1.6119 -12.2284 -0.6659 -0.5009 0.0000 -0.0000 0.0000 0.3921 -0.9595 4.7118 1.2476 14.8750 -0.3543 -2.2789 0.2091 -0.6890 0.0000 0.0000 0.0000
